<svg xmlns="http://www.w3.org/2000/svg" enable-background="new 0 0 50 50" viewBox="0 0 50 50" id="bee">
  <path fill="#CDCDCD" d="M33.6,12.8c0.9,2.6,1.3,13.6-2,14.3c-3.3,0.7-9-9.2-9.9-11.7c-0.9-2.6,1-5.2,4.3-5.9
				C29.3,8.8,32.7,10.3,33.6,12.8z"></path>
  <path fill="#B6B6B5" d="M28.3,22.1c0,0.4,0,0.8,0.2,1.2c0.1,0.4,0.4,0.7,0.8,0.9c0.5,0.2,1-0.1,1.5-0.4
				c5.5-3.3,6.1-11.1,2.3-13.3C27.2,7.3,28.1,16.3,28.3,22.1z"></path>
  <path fill="#434343" d="M31.3 40.9c-.1-.2 0-.5.3-.6 2.3-.8 3.9-3 3.9-5.5 0-.3.2-.5.5-.5 0 0 0 0 0 0 .3 0 .5.2.5.5 0 2.9-1.8 5.5-4.5 6.4C31.7 41.3 31.4 41.2 31.3 40.9zM35.2 42.1c-.2 0-.5-.2-.5-.4 0-.3.2-.5.4-.5.4 0 .7-.5 1-.9.6-.9 1.1-1.9 1.6-2.8.4-.9.8-2 .9-3.1 0-.3.2-.5.5-.5.3 0 .5.2.5.5 0 1.3-.5 2.5-1 3.4-.5 1-1 2-1.6 2.9C36.6 41.4 36 42.1 35.2 42.1 35.2 42.1 35.2 42.1 35.2 42.1zM19.8 37.5c4.6-1.4 5-5.7 5-5.8 0-.3.2-.5.5-.4.3 0 .5.3.4.5-.2 2.5-2.1 5.5-5.7 6.6C19.5 38.6 19.2 37.7 19.8 37.5z"></path>
  <path fill="#434343" d="M22.1 38.8c4.6-1.4 5-5.6 5-5.8 0-.3.3-.5.5-.4.3 0 .5.3.4.5-.2 2.5-2.1 5.5-5.7 6.6C21.8 39.9 21.5 38.9 22.1 38.8zM13.3 22c-.1 0-.2 0-.4-.1 0 0-1.6-1.4-3.6-2.2-2.6-1.1-4.7-.8-6.3.9-.2.2-.5.2-.7 0C2 20.3 2 20 2.2 19.8c1.9-2 4.5-2.3 7.5-1.1 2.2.9 3.8 2.3 3.9 2.4.2.2.2.5 0 .7C13.6 21.9 13.4 22 13.3 22zM18.7 20.7c-.2 0-.5-.2-.5-.4 0-.1-1.2-4.6-4.5-6.4-1.6-.8-3.5-.9-5.6-.1-.3.1-.6 0-.7-.3-.1-.3 0-.6.3-.7 2.4-.9 4.6-.9 6.5.1 3.7 1.9 5 6.8 5 7 .1.3-.1.6-.4.6C18.8 20.7 18.7 20.7 18.7 20.7z"></path>
  <polygon fill="#434343" points="49 26.3 43.9 30.4 42.6 24.7"></polygon>
  <path fill="#FAC11D" d="M43.4,33.6c-1.1,1.1-2.5,2-4.1,2.5c-0.4,0.1-0.8,0.3-1.2,0.4c-0.5,0.1-0.9,0.2-1.4,0.2
				c-1.2,0.1-2.5,0.1-3.6-0.2c-1.1-0.3-2.1-0.7-3-1.2c-0.9-0.6-1.7-1.4-2.2-2.3c-0.3-0.6-0.6-1.2-0.7-1.8c-0.4-1.6-0.1-3.2,0.7-4.7
				c1.2-2.2,3.7-4.1,6.8-4.8c0.8-0.2,1.6-0.3,2.4-0.3C44.9,21.3,48.5,28.5,43.4,33.6z"></path>
  <path fill="#434343" d="M40.4 21.9c5.7 1.7 7.2 7.6 3 11.7C42.9 29.6 41.9 25.7 40.4 21.9zM34.8 21.7c.8-.2 1.6-.3 2.4-.3 1.5 4.8 2.2 9.7 2.1 14.7-.4.1-.8.3-1.2.4-.5.1-.9.2-1.4.2-.5-4.9-1.6-9.8-3.7-14.5C33.6 22 34.1 21.9 34.8 21.7zM33.1 36.5c-1.1-.3-2.1-.7-3-1.2-.9-.6-1.7-1.4-2.2-2.3.6-1.2 1.3-2.3 1-3.5-.3-1-.6-2-1-3 .7-1.3 1.8-2.4 3.2-3.3.5 1.8 1 3.7 1.3 5.5C32.9 31.3 33.1 33.9 33.1 36.5z"></path>
  <path fill="#FBB116" d="M31.1,29.1c-0.2,3.1-2.3,5.6-4.7,5.4c-0.9,0-1.7-0.4-2.3-1.1c-1.1-1.1-1.8-2.9-1.7-4.8
				c0.2-3.1,2.3-5.6,4.7-5.4c0.5,0,1,0.2,1.5,0.4C30.2,24.5,31.3,26.7,31.1,29.1z"></path>
  <path fill="#FFF" d="M24.1,33.5c-1.1-1.1-1.8-2.9-1.7-4.8c0.2-3.1,2.3-5.6,4.7-5.4c0.5,0,1,0.2,1.5,0.4
				C29.7,27.4,27.8,31.4,24.1,33.5z" opacity=".3"></path>
  <path fill="#FBB116" d="M15.5,34.1c-2.5-0.8-4.5-2.5-5.3-5c-1.5-4.4,1.3-9.3,6.3-11c2.7-0.9,5.4-0.7,7.6,0.3
				c1.9,0.9,3.4,2.5,4.1,4.5C30.4,29.8,22.7,36.4,15.5,34.1z"></path>
  <path fill="#FAC11D" d="M15.5,34.1c-1.9-0.9-3.4-2.5-4.1-4.5c-1.5-4.4,1.3-9.3,6.3-11c2.2-0.7,4.4-0.7,6.4-0.1
				c1.9,0.9,3.4,2.5,4.1,4.5C30.4,29.8,22.7,36.4,15.5,34.1z"></path>
  <ellipse cx="23.3" cy="24.6" fill="#434343" rx="1.4" ry="1.9" transform="rotate(-18.933 23.345 24.552)"></ellipse>
  <ellipse cx="14.8" cy="27.5" fill="#434343" rx="1.4" ry="1.9" transform="rotate(-18.933 14.847 27.468)"></ellipse>
  <path fill="#434343" d="M19.4,31.6c-0.8,0-1.6-0.2-2.4-0.5c-0.2-0.1-0.2-0.3-0.2-0.4c0.1-0.2,0.3-0.2,0.4-0.2
				c2.5,1.1,4.4,0.4,6-2.1c0.1-0.2,0.3-0.2,0.5-0.1c0.2,0.1,0.2,0.3,0.1,0.5C22.6,30.7,21.2,31.6,19.4,31.6z"></path>
  <path fill="#ECEEF0" d="M40.9,13.7c-0.5,2.8-6,13.9-9.4,13.5c-3.4-0.4-3.4-12.1-2.9-14.9c0.5-2.8,3.7-4.8,7.1-4.4
				C39.1,8.3,41.5,10.9,40.9,13.7z"></path>
  <circle cx="2.4" cy="20.3" r="1.4" fill="#FBB116"></circle>
  <circle cx="7.2" cy="13.4" r="1.4" fill="#FBB116"></circle>
</svg>
