<svg width="24" height="24" viewBox="0 0 24 24" fill="none" xmlns="http://www.w3.org/2000/svg">
<path d="M5.99978 17.7926C6.18714 17.6064 6.44059 17.5018 6.70478 17.5018C6.96896 17.5018 7.22241 17.6064 7.40978 17.7926L10.9998 21.4226V1.00264C10.9998 0.737423 11.1051 0.483069 11.2927 0.295532C11.4802 0.107996 11.7346 0.00263977 11.9998 0.00263977C12.265 0.00263977 12.5193 0.107996 12.7069 0.295532C12.8944 0.483069 12.9998 0.737423 12.9998 1.00264V21.4126L16.6198 17.7926C16.7127 17.6989 16.8233 17.6245 16.9452 17.5737C17.0671 17.523 17.1978 17.4968 17.3298 17.4968C17.4618 17.4968 17.5925 17.523 17.7144 17.5737C17.8362 17.6245 17.9468 17.6989 18.0398 17.7926C18.226 17.98 18.3306 18.2335 18.3306 18.4976C18.3306 18.7618 18.226 19.0153 18.0398 19.2026L14.1298 23.1226C13.5673 23.6844 12.8048 24 12.0098 24C11.2148 24 10.4523 23.6844 9.88978 23.1226L5.99978 19.2026C5.81353 19.0153 5.70898 18.7618 5.70898 18.4976C5.70898 18.2335 5.81353 17.98 5.99978 17.7926Z" fill="white"/>
</svg>
