<svg width="25" height="22" viewBox="0 0 25 22" fill="none" xmlns="http://www.w3.org/2000/svg">
<path d="M17.7111 1.48479C16.9068 1.48587 16.1111 1.65167 15.3732 1.97196C14.635 2.2924 13.9703 2.76068 13.42 3.34792L12.6903 4.1267L11.9606 3.3479C11.1544 2.4875 10.1082 1.88933 8.95783 1.63102C7.80741 1.37272 6.60591 1.46621 5.5093 1.89937C4.41269 2.33253 3.47162 3.08535 2.80826 4.0601C2.14499 5.03471 1.78999 6.18618 1.78931 7.36507L17.7111 1.48479ZM17.7111 1.48479C19.2701 1.48677 20.7646 2.10692 21.8669 3.20926C22.9695 4.31184 23.5897 5.80678 23.5914 7.36607L17.7111 1.48479ZM12.7 20.2684C12.6795 20.256 12.6563 20.242 12.6306 20.2263C12.5297 20.1648 12.3924 20.0794 12.2239 19.9717C11.887 19.7563 11.4281 19.4533 10.8892 19.0749C9.80956 18.3171 8.41877 17.264 7.04729 16.015C5.67199 14.7625 4.34136 13.3356 3.36057 11.8336C2.37596 10.3257 1.78944 8.81218 1.78931 7.36556L12.7 20.2684ZM12.7 20.2684C13.2869 19.9102 15.837 18.2933 18.3358 16.0153C19.7099 14.7627 21.0399 13.3358 22.0204 11.8337C23.0046 10.326 23.5911 8.81261 23.5914 7.36615L12.7 20.2684Z" stroke="#303030" stroke-width="2"/>
</svg>
