<svg xmlns="http://www.w3.org/2000/svg" viewBox="0 0 2000 2000" id="shoe-discount">
  <polygon fill="#fa0" points="1103.47 396.661 1308.952 233.493 1338.872 494.168 1599.547 524.089 1436.379 729.57 1599.547 935.052 1338.872 964.972 1308.952 1225.647 1103.47 1062.479 897.989 1225.647 868.068 964.972 607.393 935.052 770.561 729.57 607.393 524.089 868.068 494.168 897.989 233.493 1103.47 396.661"></polygon>
  <path fill="#ff6a00" d="M1041.87136 588.30801c-20.50981-32.64584-65.57435-43.78841-95.22175-16.0744-1.40718 1.31539-2.62463 2.78625-3.75269 4.31792-22.61719 12.63604-41.41458 31.72035-49.7154 57.16405-10.26862 31.47656-2.97872 70.84824 27.29417 88.73689 74.51051 44.02892 164.67795-65.2521 121.39567-134.14446Zm-36.19155 54.84249c-6.06858 22.66395-40.44535 56.59364-66.14145 42.10677-22.97457-12.9526-12.32937-47.62066-.7139-63.76943 1.77149-2.46246 3.64223-4.83437 5.57924-7.14639 4.46288 2.53437 10.68428 2.81392 18.8366-.79756 11.76055-5.21046 19.70473-16.7898 33.89425-6.91524 11.41136 7.94138 11.71571 24.68112 8.54526 36.52185ZM1306.86507 789.51484c-20.50981-32.64584-65.57435-43.78841-95.22175-16.0744-1.40718 1.31539-2.62463 2.78625-3.75269 4.31792-22.61719 12.63604-41.41458 31.72035-49.7154 57.16405-10.26862 31.47656-2.97872 70.84824 27.29417 88.73689 74.51051 44.02892 164.67795-65.2521 121.39567-134.14446Zm-36.19155 54.84249c-6.06858 22.66395-40.44535 56.59364-66.14145 42.10677-22.97457-12.9526-12.32937-47.62066-.7139-63.76943 1.77149-2.46246 3.64223-4.83437 5.57924-7.14639 4.46288 2.53437 10.68428 2.81392 18.8366-.79756 11.76055-5.21046 19.70473-16.7898 33.89425-6.91524 11.41136 7.94138 11.71571 24.68112 8.54526 36.52185ZM1169.70392 521.71329c-1.41857-8.3288-12.75802-14.85627-19.08005-6.63261-20.21414 26.29387-24.51894 60.97229-33.15801 92.53631-16.60857 60.68422-28.71946 110.45698-56.71451 222.65158-8.69218 34.83528-21.24988 72.98481-14.2115 108.92634 1.36833 6.98836 10.40595 12.28821 15.89995 5.52683 23.55894-28.99395 27.73454-57.33368 63.4479-202.51969 9.14388-37.17375 18.37027-74.30269 26.66943-111.67552 7.66993-34.53929 23.16375-73.481 17.14679-108.81324Z"></path>
  <path fill="#1b136a" d="M609.18121 635.38054c-25.38084-9.533-44.53188-17.06669-111.07617-38.4502-169.83142-54.44339-164.49997-53.7482-176.31836-53.15649-3.47656.17407-6.4707 5.0769-3.18164 7.68188 8.00026 6.33663 16.03814 8.95253 54.19922 21.21704 165.15845 53.07304 176.8655 57.08243 233.71875 72.35059 6.32227 1.69775 8.58594-7.41626 2.6582-9.64282ZM583.58941 710.70573c-7.92405-2.29613-13.37991-1.64631-47.83203-1.26587-7.92383.0874-15.83789.21899-23.75977.43188-7.83984.21069-16.43164-.44238-24.07422 1.48779-4.36328 1.10205-4.44922 7.8623 0 8.91943 7.39648 1.75732 15.59766 1.05835 23.16016 1.15552 14.47861.18605 24.47215.11095 48.43164.03931 7.97461-.02393 16.39062.49463 24.07422-1.84839 4.34961-1.32617 4.44531-7.63208 0-8.91968ZM1478.15777 266.74114c-1.25857-1.06625-1.67804-1.40841-3.08984-1.80029-2.94727-.81763-6.38672.53101-7.9043 3.2168-14.37505 25.44458-72.94897 138.51677-82.00586 156.00708-3.86523 7.46655-8.82812 15.03442-11.00391 23.18774-1.72461 6.47119 7.1582 12.61572 11.91016 6.93213 4.99672-5.97924 5.47674-8.20601 24.16602-44.10815.29939-.5751 57.25849-110.19835 69.02148-134.95264 1.25391-2.63818 1.37891-6.38403-1.09375-8.48267ZM1498.84722 376.83513c-33.28759 51.87339-36.87377 57.64835-39.31836 65.92651-1.31445 4.45532 4.32812 7.34399 7.52148 4.37842 6.69737-6.22209 11.83608-15.01492 41.50977-64.62671 3.73828-6.24902-5.81836-11.74854-9.71289-5.67822ZM1543.02105 906.21233l-81.58203-83.35376c-21.2691-21.69345-22.70404-23.9272-27.85156-26.58838-3.38672-1.75171-6.64258 1.72461-5.04492 5.04517 2.35724 4.89624-.54002 1.25208 97.65039 103.16675-55.34191-.56395-56.07212-1.15404-69.0332-.57251-7.09961.3186-7.05859 10.56958 0 11 13.59375.8291 27.38086.29272 41.00195.37378 13.66602.08105 27.33398.16235 41 .24341 4.78125.02856 7.13086-5.96045 3.85938-9.31445ZM1302.82769 973.07268c-1.10938-1.74194-3.99414-2.52441-5.49805-.7085-.82812 1.00146-1.8125 1.89868-2.17188 3.198-.69472 2.52537-2.97384 37.09384-2.94531 36.69214-.33594 4.73022-.79297 9.24072.4668 13.87988 1.14453 4.21265 6.40625 3.47241 7.83594 0 1.89214-4.60408 1.73153-7.44749 2.83203-26.67993 1.43243-25.23499 1.47231-23.24605-.51953-26.38159ZM1515.82965 568.95476c-.38867-1.38208-1.66602-2.97046-3.1875-3.18652-5.33203-.75708-7.85156 2.20093-11.16016 5.96191-33.25866 37.79021-58.19488 65.86759-62.25 71.27734-1.57812 2.10767-2.30273 4.68726-3.62305 6.9751-1.79883 3.11548 2.05664 7.74512 5.30078 5.30176 1.87109-1.40869 4.01367-2.31299 5.8418-3.7312 3.65402-2.83737 54.21858-59.99575 63.26562-70.13501 3.21875-3.60498 7.30078-7.16309 5.8125-12.46338ZM1694.66736 1086.8641c-58.16513 66.97647-148.00581 64.65837-194.07436-3.50283-12.77359-18.89764-22.2415-40.10296-38.29303-56.66295-22.88245-23.61235-61.24361-37.33602-89.98546-15.63106-32.37306 24.44824-27.08648 68.62779-11.8046 101.02546 3.5328 7.48954 14.83019 3.42114 14.9286-4.04316.29272-22.80296-7.70907-62.5356 16.71267-76.6116 23.53097-13.56059 49.42387 11.37404 61.62212 28.47847 23.10199 32.39388 37.88423 65.51167 74.5345 85.15341 62.17223 33.31935 142.61913 12.25251 174.27301-52.09965 2.37202-4.81975-3.9315-10.69208-7.91347-6.10607Z"></path>
  <path fill="#4a53e2" d="m1111.91942,1032.07716c-93.9649-2.37407-159.63965,36.44808-163.91686,66.02558-2.9122,20.1368,1.72557,47.50465,12.18816,67.45534-2.42249,31.12625-4.84498,62.25258-7.26747,93.37892h57.86726l56.35573-199.14124,44.77319-27.7186Z"></path>
  <path fill="#1b136a" d="m1078.72624,1040.20402c-101.51752,13.5098-106.06222,71.09696-106.06222,71.09696l8.79162,53.19198,121.20027,77.97015,175.23949-37.05528,113.21866-141.14197s-210.87282-37.57133-312.38782-24.06184Z"></path>
  <path fill="#4a53e2" d="m972.66402,1111.30098c-21.62975,168.69516-4.77501,57.833-74.60768,476.83791,94.0507,25.19249,188.10392,50.38514,282.15462,75.57763,14.2927-4.29188,28.58287-8.58376,42.87557-12.87564,17.62362,12.84062,35.24725,25.6814,52.87087,38.52203,82.59939,22.12486,165.19879,44.24957,247.79818,66.37442,6.69353,1.79291,13.59315,2.70096,20.52264,2.70096h365.84197v-45.41319s51.90188-145.97087-27.57098-218.95615c-79.47538-72.98544-244.90882-66.49786-343.84235-162.18989-98.93606-95.69187-147.5928-267.61313-147.5928-267.61313,0,0-188.14178-29.1941-207.60498,61.63214-19.46068,90.82623-210.84506-14.59709-210.84506-14.59709Z"></path>
  <path fill="#1b136a" d="m1910.1202,1713.0251c-224.33044,26.5589-456.3369-2.09583-675.5773-91.96193-85.21507-84.58227-192.5031-142.80891-314.67657-163.78959-7.27,43.62172-14.53999,87.24359-21.80999,130.86531l279.77503,74.93983,27.26203-7.37216c11.40979-3.08542,23.59954-.98263,33.31616,5.74719l42.02694,29.10826,227.83768,61.02846c16.97016,4.54562,34.46282,6.84782,52.03123,6.84782h349.81479s35.09837-23.75792,0-45.41319Z"></path>
  <path fill="#4a53e2" d="m1391.11406,1064.26593s-153.74745-29.07959-256.03462-12.48206c-102.28717,16.59761-128.62672,25.61201-149.76295,75.65412l-16.31649,12.43001s-24.2123-102.75172,135.20025-107.38363c159.41507-4.63191,286.91381,31.78156,286.91381,31.78156Z"></path>
  <path fill="#b4b2fa" d="m1174.63166,1145.45519c178.91215,57.34312,318.23476,189.92364,381.17648,366.94379,0,0,68.31425-91.10381,161.92083-90.97007-148.81263-77.12759-262.24738-202.4029-326.61491-357.16298-91.34676-28.91502-194.9675-10.8651-216.4824,81.18926Z"></path>
  <path fill="#1b136a" d="M1446.69005 1144.76606c-21.20185-21.69423-72.12463 1.29515-94.61595 13.03445-26.48843 13.82618-62.69963 39.94461-66.7901 71.75495-.65609 5.10837 5.89221 7.71822 9.72025 5.57772 11.66076-6.52149 19.39255-17.48894 29.38028-26.24113 25.46708-22.31344 57.81335-38.0534 92.61235-41.40694 12.81145-1.2349 20.09406.60215 29.69318-8.83263 3.8129-3.74855 3.68925-10.11201 0-13.88643ZM1492.17737 1218.58391c-19.88714-17.92297-61.66502 2.81173-81.4058 14.58037-21.75448 12.96948-54.77858 38.59931-55.26561 65.98261-.08327 4.68569 5.062 7.16464 8.94303 5.13171 10.31073-5.40077 16.17265-14.85322 24.37632-22.94585 18.43513-18.18847 45.68348-33.68567 72.24576-39.35949 12.49349-2.66884 22.31468-.77406 31.1063-10.78198 3.05082-3.47287 3.76496-9.21493 0-12.60736ZM1589.21328 1305.27314c-26.86442-14.06086-60.54714-17.54414-90.43715-15.03648-25.74402 2.15942-60.90042 6.77793-78.63003 27.49591-3.52018 4.1135-1.26424 10.67316 4.47656 10.80721 24.76745.57881 48.91414-11.08952 74.15347-11.78504 28.17408-.77659 53.27462 6.442 80.38129 12.3689 13.82334 3.02244 23.76565-16.67418 10.05586-23.8505ZM1649.16237 1351.28218c-30.46535-7.45989-68.25621 7.49711-94.18444 22.91336-20.79053 12.36228-57.98334 38.69457-56.77209 66.03402.14636 3.30254 3.47728 6.69182 7.03279 5.35692 10.52017-3.95106 14.65103-10.72583 22.74114-18.65003 48.28812-47.29654 78.83116-40.45306 121.1826-51.23569 11.98376-3.05114 12.14021-21.44567 0-24.41859ZM1295.39537 1376.5316c-25.44625-35.96958-64.86725-57.31968-95.82467-87.76516-17.81036-17.51922-34.31358-40.10706-34.54069-66.1359-.22459-25.80489 15.52665-35.55384 27.8536-54.69689 3.44196-5.34714-1.10779-12.1175-7.03027-12.24778-32.62288-.71823-46.22416 43.93037-45.21479 70.25982 1.58471 41.24134 32.21913 74.59917 62.97216 98.69223 39.98372 31.32552 80.98691 57.3017 96.60946 108.50648 14.58037 47.78585 4.23936 97.49013-21.16399 139.50427-2.63194 4.35323 3.55046 9.25909 7.10093 5.47994 50.34492-53.5809 50.98335-142.59263 9.23827-201.59701ZM374.07661 1010.43371s8.06992-37.583 92.68048-57.55893c84.61308-19.97593 249.6453-42.35685 257.47045-11.21735 7.82263 31.1395-62.72234 106.00923-62.72234 106.00923h-249.09266l-38.33592-37.23295"></path>
  <path fill="#4a53e2" d="m374.07566,1010.4337c-15.01188,182.58984-30.02627,365.17968-45.03815,547.76952,40.87954,50.35359,125.49766,137.89054,259.38573,176.0115,32.05763,9.12787,241.0076,68.62069,337.81136-41.42492,49.14377-55.86729,45.41414-128.17897,45.09114-133.04272-5.82407-87.58418-74.60768-137.8545-84.91589-145.1323-66.00626-147.63735-121.1654-305.5652-162.18327-472.95735-20.73935,13.58982-45.73375,18.04702-69.92672,9.25436-4.98377-6.24809-37.41487-45.59386-89.88452-46.95974-50.10015-1.30414-97.90398,32.55223-117.66999,84.86905-24.22239,7.20423-48.4473,14.40838-72.66969,21.61261Z"></path>
  <path fill="#1b136a" d="m329.03846,1558.20315c-7.99508-15.1441-5.97566-32.86024,4.11824-45.80417,39.08034,54.24677,108.31059,129.98464,216.66913,171.89437,117.82392,45.57107,311.29265,62.51021,390.62167-40.40025,18.77683-24.35834,26.87704-49.87525,30.77321-67.16799,0,0,33.30168,85.76944-60.10806,144.01695-93.40975,58.24751-400.65987,99.16254-582.07418-162.53891Z"></path>
  <path fill="#b4b2fa" d="m446.7463,988.8211s94.58819,123.94931,136.27523,281.43332c41.68451,157.48401-33.56664,242.14456-33.56664,242.14456,0,0,177.15477-125.76326,313.0212-103.28187-33.95525-26.16843-81.99881-70.40823-118.11159-138.09068-10.42176-19.53118-20.20004-41.673-35.51221-89.54985-17.43941-54.52884-38.78257-132.20265-54.55148-230.56479-4.35291-5.68615-46.25444-58.69116-108.51499-54.72496-54.0346,3.44185-92.07321,42.82547-99.03952,92.63427Z"></path>
  <path fill="#1b136a" d="M696.09131 1043.35483c-43.6183-22.53617-127.78106-17.59811-191.00334 30.00104-13.07136 9.84074-33.81394 23.27894-32.07782 41.4492.28262 2.9584 2.37455 5.82407 5.68528 5.68497 16.34425-.68795 26.25375-16.50858 39.0122-25.54467 16.43004-11.63868 34.66938-20.34483 53.84239-26.41209 41.42965-13.1111 76.40941-6.03226 117.95514-.86175 13.01584 1.62004 17.53026-18.66233 6.58615-24.3167ZM714.25243 1105.32897c-25.3226-24.47221-88.97861-4.60652-117.62709 6.40793-31.03817 11.93392-82.42022 37.61769-90.3236 73.56992-.87563 3.97724 2.65212 8.45096 6.99242 6.99274 15.2188-5.11467 26.14019-17.02147 39.12828-26.05661 32.43709-22.56886 72.06403-37.95502 112.28752-40.66568 16.23069-1.09359 33.26636 3.70565 47.58177-5.02951 5.23611-3.19466 6.53063-10.80343 1.9607-15.2188ZM730.8793 1153.01388c-64.34705-11.58389-176.63816 100.05886-168.46408 168.80916.66871 5.61873 7.72421 8.38378 11.07533 2.99941 10.03063-16.12281 13.77035-35.59359 23.57134-52.24285 19.88669-33.77375 47.55224-62.29689 83.26304-81.30423 16.84893-8.967 37.04393-12.08785 52.53021-23.14836 5.16293-3.68799 5.69033-13.73344-1.97584-15.11313ZM794.23501 1285.40272c-36.77645-17.16184-95.58242-1.36675-131.76838 11.96957-40.067 14.76742-84.50962 38.49238-108.55789 75.06285-4.65825 7.08232 4.71629 16.73096 11.84245 11.84371 35.58791-24.40944 65.38455-50.4815 107.0186-64.72783 19.33199-6.61517 39.49165-11.22389 59.84058-13.2234 19.57423-1.92348 40.25373 2.15848 59.21729-2.50576 7.94628-1.9544 10.38391-14.69676 2.40735-18.41913ZM439.48388 1025.87252c-47.92748 24.62582-100.52077 23.78489-143.51999-10.87503-33.62973-27.10825-58.03885-64.78398-98.74175-82.64733-32.24184-14.15044-69.72737-10.61102-96.54637 13.20762-24.40912 21.67814-36.11026 60.61401-19.89219 90.24285 3.93655 7.19335 15.11786 3.79776 15.16833-4.10814.14384-23.24645.22206-44.82334 16.8237-63.13618 17.22492-19.00205 43.33988-24.52804 67.35283-16.91959 40.10232 12.70641 65.32651 51.14737 96.20571 77.09989 48.50786 40.77103 119.96631 48.64508 170.97742 7.28198 5.94772-4.82196-1.62509-13.33222-7.82767-10.14607ZM920.40896 1260.9611c-57.00425 8.1961-69.77532-57.5471-70.68123-99.3458-.72927-33.58936-.06056-66.80651-14.69392-97.8901-25.19139-53.51624-77.97898-84.90012-136.32822-82.41012-6.88139.29366-6.74765 10.03694 0 10.59461 38.09368 3.14829 76.38165 24.53719 100.43497 53.99664 53.08281 65.01878 6.71892 150.33511 54.05184 207.63463 17.89868 21.66332 44.30636 31.48292 71.06479 21.37375 8.84462-3.34165 5.30929-15.27021-3.84823-13.95361ZM813.08355 1414.54485c-5.04102-3.49048-11.11914-3.08667-17.05859-3.31787-100.77656-3.91688-203.83926 44.596-265.45898 125.0415-8 10.44165-16.29492 21.53101-21.89844 33.47144-2.91211 6.20752 5.21094 10.97144 9.17578 5.36255 11.36789-16.08524 16.48537-27.76902 41.43555-54.0105 59.94924-63.04707 147.52666-100.61685 235.26172-97.55493 6.48242.22607 12.49414 1.4248 18.54297-1.32886 3.28711-1.49609 2.45898-5.96216 0-7.66333ZM1674.17144 1432.65227c-7.66211.39478-14.81836 4.29028-21.65234 7.53076-46.48653 22.05316-87.63068 60.31746-113.58594 108.17554-8.07617 14.89209-15.58789 31.53418-18.43945 48.31152-.85156 5.01514 6.63086 9.36206 9.02539 3.80469 9.59549-22.28031 17.14629-45.92649 40.45898-76.74487 22.41603-29.63006 51.95182-54.19342 85.70508-70.82837 7.39453-3.6438 15.73828-6.07129 22.24414-11.18018 3.64258-2.86035.57812-9.29248-3.75586-9.06909ZM1899.85894 1566.18645c-4.06852-32.58274-22.91362-62.95621-51.5332-78.27563-3.98242-2.13208-7.32812 3.61279-3.5332 6.04443 16.66406 10.67822 29.95508 26.25854 37.82031 44.42212 12.05627 27.84374 6.44594 48.91734 7.42773 57.57178.38281 3.36523 4.93359 5.35498 6.87109 1.86108 5.0332-9.07007 4.19141-21.67334 2.94727-31.62378ZM1900.19879 1636.33806c-2.24414-.51099-5.14258.67822-5.61328 3.18652-3.23909 17.2717-4.47953 22.46406-4.60352 29.89355-.0588 3.84159 5.54317 5.23156 7.12109.96362 2.39204-6.47419 2.64913-9.06402 6.28125-28.4314.43945-2.33789-.64648-5.03394-3.18555-5.6123ZM927.94488 1530.30241c-2.73849-25.7639-11.82674-48.56688-25.77344-67.71533-5.15792-7.08495-16.94511-21.67924-25.14844-24.76245-2.69922-1.01465-4.90039 2.43018-3.59961 4.68262 2.63672 4.55981 7.19727 8.04102 10.74219 11.89526 11.67952 12.69734 20.53097 27.73953 26.49219 43.92896 11.737 31.87299 6.90417 48.00219 7.98633 66.82251.23242 4.02588 5.3418 4.47217 6.75195.91382 4.39844-11.08325 3.78516-24.12573 2.54883-35.76538ZM898.58746 1635.46477c-2.73135-3.42369-6.91904.177-9.43359 1.17065-2.11644.84058-2.723 1.53031-10.28516 7.75854-10.91085 8.98385-12.27675 9.6482-13.66797 12.22388-2.0423 3.77903 1.21563 8.17074 5.44531 6.95996v.12231c.85352-.25244 1.66406-.62988 2.44336-1.0769l3.67383-1.06079c1.78125-.5144 3.06836-2.28027 3.05859-4.12988 14.68178-11.72873 14.30621-11.28148 15.29102-12.66992.19486-.27428.51099-.80981.67969-1.01685 1.0625-1.29663 2.41602-2.56934 3.08789-4.11621.61328-1.41504.73438-2.875-.29297-4.16479ZM379.83941 1207.18864c-3.17349 22.12467-17.41263 121.69672-17.61914 144.04688-.0332 3.54321 5.42773 4.39673 6.25977.84741 5.16567-21.99644 14.93267-121.62566 17.12891-144.11353.31836-3.25977-5.29883-4.06201-5.76953-.78076ZM984.3941 1241.01311c-2.54014 7.31443-12.9856 51.57576-14.70508 58.73926-4.59375 19.13843-10.73438 38.61865-12.51562 58.26685-.39258 4.32349 5.63672 4.36816 6.99805.94702 7.27734-18.30078 10.52734-38.48853 15.07617-57.60767 1.64912-6.9301 12.18034-50.47426 13.22266-58.11914.71484-5.22998-6.25977-7.45728-8.07617-2.22632Z"></path>
</svg>
