<svg width="24" height="24" viewBox="0 0 24 24" fill="none" xmlns="http://www.w3.org/2000/svg">
<path d="M5.99978 6.2098C6.18714 6.39605 6.44059 6.50059 6.70478 6.50059C6.96896 6.50059 7.22241 6.39605 7.40978 6.2098L10.9998 2.5798V22.9998C10.9998 23.265 11.1051 23.5194 11.2927 23.7069C11.4802 23.8944 11.7346 23.9998 11.9998 23.9998C12.265 23.9998 12.5193 23.8944 12.7069 23.7069C12.8944 23.5194 12.9998 23.265 12.9998 22.9998V2.5898L16.6198 6.2098C16.7127 6.30353 16.8233 6.37792 16.9452 6.42869C17.0671 6.47946 17.1978 6.5056 17.3298 6.5056C17.4618 6.5056 17.5925 6.47946 17.7144 6.42869C17.8362 6.37792 17.9468 6.30353 18.0398 6.2098C18.226 6.02244 18.3306 5.76899 18.3306 5.5048C18.3306 5.24062 18.226 4.98716 18.0398 4.7998L14.1298 0.879802C13.5673 0.318 12.8048 0.00244141 12.0098 0.00244141C11.2148 0.00244141 10.4523 0.318 9.88978 0.879802L5.99978 4.7998C5.81353 4.98716 5.70898 5.24062 5.70898 5.5048C5.70898 5.76899 5.81353 6.02244 5.99978 6.2098Z" fill="white"/>
</svg>
